<?xml version="1.0" standalone="no"?>
<!DOCTYPE svg PUBLIC "-//W3C//DTD SVG 1.1//EN" "http://www.w3.org/Graphics/SVG/1.1/DTD/svg11.dtd" >
<svg xmlns="http://www.w3.org/2000/svg" xmlns:xlink="http://www.w3.org/1999/xlink" version="1.1">
<metadata></metadata>
<defs>
<font id="opendyslexicregular" horiz-adv-x="1327" >
<font-face units-per-em="2048" ascent="1638" descent="-410" />
<missing-glyph horiz-adv-x="800" />
<glyph unicode="&#xfb01;" horiz-adv-x="1390" d="M150 987h176l-21 -987h246l-31 987h506l-20 -987h235l-31 1120h-690v99q0 194 176 194l176 39v154l-184 -21q-186 -30 -274 -119.5t-88 -267.5v-78h-176v-133zM1026 1321h184v233h-184v-233z" />
<glyph unicode="&#xfb02;" horiz-adv-x="1462" d="M150 977h165l-28 -977h295l-62 977h293v143h-293l-8 119q0 104 38 144t136 40h330v-1423h297l-2 211l-111 -2v1347h-512q-189 0 -275.5 -85.5t-86.5 -272.5l-11 -78h-165v-143z" />
<glyph horiz-adv-x="0" />
<glyph horiz-adv-x="682" />
<glyph horiz-adv-x="0" />
<glyph horiz-adv-x="0" />
<glyph unicode=" "  horiz-adv-x="800" />
<glyph unicode="&#x09;" horiz-adv-x="800" />
<glyph unicode="&#xa0;" horiz-adv-x="800" />
<glyph unicode="!" horiz-adv-x="571" d="M150 481h272l-31 357l-8 655h-195l-18 -655zM160 0h252l-21 254h-213z" />
<glyph unicode="&#x22;" horiz-adv-x="901" d="M150 905h200l-10 588h-178zM551 905h201l-13 588h-180z" />
<glyph unicode="#" horiz-adv-x="1701" d="M150 414h315l-105 -414h162l103 414h293l-103 -414h160l104 414h357v153h-318l82 334h350v154h-311l102 415h-159l-105 -415h-293l105 415h-162l-102 -415h-361v-154h322l-84 -334h-352v-153zM664 567l84 334h290l-82 -334h-292z" />
<glyph unicode="$" horiz-adv-x="1267" d="M150 109q207 -93 409 -99l-24 -301l180 -4l-15 303q189 12 302 109.5t116 263.5q-6 156 -106.5 238t-329.5 120l8 467q190 -12 348 -98l4 156q-152 54 -350 67l4 232l-98 2l-4 -236q-204 -9 -314.5 -101t-113.5 -255q6 -152 101 -240t304 -127l-8 -393q-207 3 -409 135z M307 973q0 89 72 152t196 75l-10 -450q-126 22 -192 79.5t-66 143.5zM676 578q124 -23 185 -76t61 -140q0 -18 -2 -33t-9.5 -27.5t-12.5 -22t-19.5 -18.5t-21.5 -14.5t-28 -11.5t-30 -9t-36 -7.5t-37 -6.5t-42 -7z" />
<glyph unicode="%" horiz-adv-x="2019" d="M150 1114q0 -189 92.5 -298t251.5 -109q160 0 253 109t93 298q0 187 -93.5 296.5t-252.5 109.5q-158 0 -251 -110t-93 -296zM309 1120q0 126 49.5 199.5t135.5 73.5t136 -73.5t50 -199.5q0 -129 -49 -201.5t-137 -72.5q-86 0 -135.5 72.5t-49.5 201.5zM463 -29h162 l942 1549h-160zM1180 377q0 -186 93.5 -296t252.5 -110q157 0 250.5 110t93.5 296q0 187 -93 297t-251 110q-159 0 -252.5 -109.5t-93.5 -297.5zM1339 397q0 122 49.5 191t137.5 69q85 0 134.5 -70t49.5 -190q0 -121 -49.5 -190.5t-134.5 -69.5q-88 0 -137.5 69t-49.5 191z " />
<glyph unicode="&#x26;" horiz-adv-x="1705" d="M150 461q0 -215 153.5 -352.5t392.5 -137.5q260 0 463 176l144 -147h251l-278 285q42 56 69.5 114.5t42.5 129.5t20.5 112.5t13.5 127.5q2 21 3 32h-186q-7 -131 -26.5 -217t-73.5 -168l-549 538q-89 92 -121 148q-29 53 -29 100q0 89 66 145t170 56q129 0 313 -96 l70 141q-173 72 -334 72q-183 0 -294.5 -99t-111.5 -260q0 -116 99 -248q-268 -200 -268 -452zM293 510q0 89 43 170t135 164l535 -549q-148 -127 -338 -127q-161 0 -268 97t-107 245z" />
<glyph unicode="'" horiz-adv-x="468" d="M150 938h169v555h-169v-555z" />
<glyph unicode="(" horiz-adv-x="724" d="M150 680q0 -462 188 -936l211 -14q-104 218 -144 438.5t-51 495.5q17 438 332 882l-160 15q-339 -440 -376 -881z" />
<glyph unicode=")" horiz-adv-x="724" d="M37 -229l229 -15q72 133 117.5 225t94 211.5t72 230.5t23.5 218q0 243 -49 470.5t-170 461.5l-157 14q103 -226 143.5 -451t40.5 -479q-43 -457 -344 -886z" />
<glyph unicode="*" horiz-adv-x="1271" d="M150 1206l389 -153l-359 -195l99 -137l294 242v-377l154 30l-39 347l336 -203l98 137l-399 156l358 194l-16 139l-377 -243v377l-153 -39l38 -338l-335 203z" />
<glyph unicode="+" horiz-adv-x="1581" d="M150 557h557v-557h167v557h558v170h-558v557h-167v-557h-557v-170z" />
<glyph unicode="," horiz-adv-x="653" d="M150 -289h129l225 322v211h-252v-211z" />
<glyph unicode="-" horiz-adv-x="845" d="M150 479l538 8l8 166l-538 -10z" />
<glyph unicode="." horiz-adv-x="598" d="M150 0h299v324h-299v-324z" />
<glyph unicode="/" horiz-adv-x="1028" d="M150 -190l231 -9l498 1667l-152 7z" />
<glyph unicode="0" horiz-adv-x="1331" d="M150 745q0 -379 127.5 -576.5t377.5 -197.5q251 0 384.5 197.5t142.5 576.5q0 380 -127.5 577.5t-378.5 197.5q-249 0 -382 -197.5t-144 -577.5zM362 891q0 549 314 549q313 0 313 -549q-21 -280 -100.5 -414.5t-233.5 -134.5t-223.5 131.5t-69.5 417.5zM563 840 q0 39 2 69t8.5 62t18 52.5t31.5 34t47 13.5q59 0 81.5 -57.5t22.5 -173.5q0 -32 -4.5 -60.5t-15.5 -55.5t-32.5 -43.5t-51.5 -16.5q-40 0 -65.5 29.5t-33.5 66t-8 80.5z" />
<glyph unicode="1" horiz-adv-x="1189" d="M150 1237l360 72v-1028h-332v-281h860v281h-329v1212h-201l-358 -72v-184z" />
<glyph unicode="2" horiz-adv-x="1247" d="M150 0h948v291h-496q38 130 168 266q117 119 160 168q90 111 125 193.5t35 175.5q0 195 -138 310.5t-370 115.5q-176 0 -422 -99v-204q236 133 426 133q134 0 217.5 -75t83.5 -194q0 -74 -37 -147q-44 -85 -122 -169t-243 -210q-142 -107 -335 -264v-291z" />
<glyph unicode="3" horiz-adv-x="1282" d="M150 45q213 -74 399 -74q283 0 433.5 122.5t150.5 361.5q0 145 -83 242.5t-225 107.5q130 34 201.5 119.5t71.5 208.5q0 179 -134 283t-364 104q-176 0 -405 -64v-160q221 74 387 74q152 0 233.5 -61.5t81.5 -175.5q0 -113 -79 -172.5t-228 -59.5h-182v-166h174 q160 0 255 -72.5t95 -179.5q0 -52 -98 -137q-103 -86 -291 -86q-222 0 -393 100v-315z" />
<glyph unicode="4" horiz-adv-x="1388" d="M150 422h655l-21 -422h271l-21 422h203v168h-203l-10 903h-254l-620 -946v-125zM313 590l510 796l-10 -796h-500z" />
<glyph unicode="5" horiz-adv-x="1265" d="M150 35q207 -64 393 -64q273 0 423 133t150 375q0 234 -146.5 371t-396.5 137q-64 0 -194 -31v387h627v150h-793v-750q164 74 326 74q176 0 270 -77t94 -230q0 -39 -25 -83.5t-69.5 -83.5t-116 -65t-153.5 -26q-213 0 -389 96v-313z" />
<glyph unicode="6" horiz-adv-x="1331" d="M150 745q0 -377 137 -575.5t395 -198.5q226 0 363 139t137 369q0 235 -131 371.5t-357 136.5q-106 0 -195 -46.5t-149 -133.5q15 274 120.5 408.5t305.5 134.5q150 0 307 -74v184q-171 60 -315 60q-282 0 -450 -210.5t-168 -564.5zM387 479q0 161 80 254.5t215 93.5 q137 0 217 -93.5t80 -254.5q0 -101 -80 -160t-217 -59q-135 0 -215 59t-80 160z" />
<glyph unicode="7" horiz-adv-x="1249" d="M150 1343h768l-551 -1343h360l373 1407v86h-950v-150z" />
<glyph unicode="8" horiz-adv-x="1363" d="M150 420q0 -215 141 -332t391 -117t391 117t141 332q0 140 -90 240.5t-239 134.5q126 32 190 119.5t64 218.5q0 164 -120 265t-337 101t-337 -101t-120 -265q0 -131 64 -218.5t190 -119.5q-149 -34 -239 -134.5t-90 -240.5zM373 440q0 135 82 212t227 77t227 -77t82 -212 q0 -81 -86.5 -150t-222.5 -69t-222.5 68.5t-86.5 150.5zM406 1174q0 99 74 163t202 64q126 0 201 -64t75 -163q0 -115 -73.5 -180.5t-202.5 -65.5q-130 0 -203 65t-73 181z" />
<glyph unicode="9" horiz-adv-x="1329" d="M150 1012q0 -235 130.5 -370.5t354.5 -135.5q107 0 196.5 46t147.5 132q-6 -108 -27.5 -184t-54 -123t-86.5 -73t-113 -35t-145 -9q-152 0 -307 76v-305q174 -60 315 -60q283 0 451 210.5t168 563.5q0 378 -136.5 576.5t-396.5 198.5q-226 0 -361.5 -139t-135.5 -369z M270 1044q0 161 97.5 255t263.5 94t262 -94t96 -255q0 -64 -17 -108t-44 -69t-76.5 -39t-97.5 -17.5t-123 -3.5t-123.5 3.5t-98 17.5t-77 39t-45 69t-17.5 108z" />
<glyph unicode=":" horiz-adv-x="561" d="M150 0h262v305h-262v-305zM150 815h262v287h-262v-287z" />
<glyph unicode=";" horiz-adv-x="628" d="M150 -328h143l182 355v190h-233v-190zM236 803h243v293h-243v-293z" />
<glyph unicode="&#x3c;" horiz-adv-x="1636" d="M150 592l1236 -576l23 242l-997 453l1058 276l17 180l-1317 -350z" />
<glyph unicode="=" horiz-adv-x="1581" d="M150 352h1282v201h-1282v-201zM150 762h1282v168h-1282v-168z" />
<glyph unicode="&#x3e;" horiz-adv-x="1636" d="M150 137l1318 350l19 228l-1235 573l-16 -180l993 -457l-1059 -272z" />
<glyph unicode="?" horiz-adv-x="1087" d="M150 1249q201 137 356 137q104 0 170.5 -68t66.5 -161q-8 -46 -39 -80.5t-118 -105.5l-101 -88q-86 -83 -115.5 -153t-29.5 -175v-154h260v123q0 42 4 82q7 63 37 103q23 31 45 73l80 86q90 98 131 164t41 135q0 159 -107.5 256t-289.5 97q-205 0 -391 -113v-158z M334 -10h264v284h-264v-284z" />
<glyph unicode="@" horiz-adv-x="2070" d="M150 543q0 -188 67 -352.5t195 -290.5q129 -125 293 -190.5t348 -65.5q152 0 299 51.5t272 148.5l-88 181q-201 -158 -483 -158q-165 0 -290.5 41.5t-227.5 140.5q-71 75 -111.5 125.5t-73.5 109.5t-46 119.5t-13 139.5q0 193 88.5 358t245.5 268q198 129 444 129 q177 0 326.5 -69.5t253.5 -200.5q127 -157 127 -375q0 -177 -82 -288.5t-230 -133.5v736h-141v-131q-118 151 -319 151q-171 0 -279.5 -125t-108.5 -325q0 -199 108 -324t280 -125q198 0 319 150v-154q280 6 439 157.5t159 415.5q0 247 -156 451q-123 160 -304 247t-394 87 q-189 0 -357.5 -67.5t-297.5 -194.5q-126 -125 -194 -289.5t-68 -347.5zM748 618q0 126 71.5 200.5t192.5 74.5q122 0 194 -74.5t72 -200.5t-70.5 -200t-193.5 -74q-124 0 -195 73t-71 201z" />
<glyph unicode="A" horiz-adv-x="1667" d="M150 0h274l76 244h671l58 -244h289l-588 1493h-191zM559 481l275 828l276 -828h-551z" />
<glyph unicode="B" horiz-adv-x="1378" d="M150 0h536q254 0 398.5 110t144.5 308q0 156 -94.5 255.5t-288.5 131.5q124 20 188 101t64 218q0 177 -126 273t-356 96h-466v-1493zM352 297v416h324q161 0 242 -66q77 -65 77 -117q0 -134 -74 -183.5t-245 -49.5h-324zM352 877v481h299q144 0 218.5 -69t74.5 -187 q0 -225 -293 -225h-299z" />
<glyph unicode="C" horiz-adv-x="1503" d="M150 745q0 -360 195 -567t534 -207q263 0 475 144v352q-203 -191 -463 -191q-265 0 -395 107.5t-134 361.5q0 296 136.5 452.5t392.5 156.5q262 0 463 -189v213q-210 142 -475 142q-339 0 -534 -207.5t-195 -567.5z" />
<glyph unicode="D" horiz-adv-x="1554" d="M150 0h415q432 0 636 181.5t204 566.5q0 384 -203 564.5t-637 180.5h-415v-1493zM362 377v950h244q306 0 449 -138t143 -421q-12 -116 -47 -190t-107 -119.5t-175.5 -63.5t-262.5 -18h-244z" />
<glyph unicode="E" horiz-adv-x="1261" d="M150 0h962v309h-760v402h711v170h-711v442h742v170h-944v-1493z" />
<glyph unicode="F" horiz-adv-x="1157" d="M150 0h251l-18 674h571v209h-581l18 430h617v180h-818z" />
<glyph unicode="G" horiz-adv-x="1603" d="M150 745q0 -365 197 -569.5t548 -204.5q323 0 559 168v611h-551v-215h322v-162q-36 -37 -119.5 -56.5t-194.5 -19.5q-142 0 -238.5 21.5t-166.5 74.5t-104.5 144t-39.5 229q0 608 549 608q280 0 504 -190v194q-227 142 -520 142q-350 0 -547.5 -205t-197.5 -570z" />
<glyph unicode="H" horiz-adv-x="1458" d="M150 0h233v502h692v-502h234l-21 1493h-213v-713h-692v713h-213z" />
<glyph unicode="I" horiz-adv-x="542" d="M150 0h241q-9 174 -15 382t-7 355.5t-3.5 391t-3.5 364.5h-172q-2 -94 -7 -453t-12 -587t-21 -453z" />
<glyph unicode="J" horiz-adv-x="925" d="M150 -90l4 -330l116 -12q240 5 343.5 116t109.5 379l53 1418l-213 14l-53 -1419q-2 -71 -68 -127t-190 -62z" />
<glyph unicode="K" horiz-adv-x="1505" d="M150 0h262l-39 719l506 -719h477l-795 797l742 696h-261l-669 -631l18 631h-201z" />
<glyph unicode="L" horiz-adv-x="1239" d="M150 0h919l21 309h-728l11 1184h-203z" />
<glyph unicode="M" horiz-adv-x="1705" d="M150 0h256l-39 1311l364 -1073h244l364 1073l-41 -1311h258l-30 1493h-281l-393 -887l-371 887h-301z" />
<glyph unicode="N" horiz-adv-x="1449" d="M150 0h256l-60 1249l662 -1249h292v1493h-186l-31 -1208l-641 1177h-252z" />
<glyph unicode="O" horiz-adv-x="1681" d="M150 745q0 -354 188 -564t504 -210q315 0 502.5 210.5t187.5 563.5t-187.5 564t-502.5 211t-503.5 -211t-188.5 -564zM362 745q0 282 130 446.5t350 164.5t348.5 -164.5t128.5 -446.5q0 -113 -32.5 -191t-97.5 -121t-148 -61t-199 -18t-199.5 18t-149 61t-98.5 121 t-33 191z" />
<glyph unicode="P" horiz-adv-x="1314" d="M150 0h241l21 580h243q249 0 378.5 121.5t129.5 345.5q0 220 -128 333t-380 113h-444zM401 846l21 561h254q151 0 233 -73t82 -208t-82 -207.5t-233 -72.5h-275z" />
<glyph unicode="Q" horiz-adv-x="1751" d="M150 745q0 -233 85.5 -409t239.5 -270.5t356 -94.5q41 0 84 4l211 -239h476l-318 350q53 58 90.5 112t77 134t60 184.5t20.5 228.5q0 353 -187.5 564t-502.5 211t-503.5 -211t-188.5 -564zM362 745q0 282 130 446.5t350 164.5t348.5 -164.5t128.5 -446.5 q0 -232 -189 -335q-115 14 -241 69l-82 -137l-94 12q-43 5 -83.5 16t-91.5 39t-88 68.5t-62.5 110t-25.5 157.5z" />
<glyph unicode="R" horiz-adv-x="1462" d="M150 0h241v631h152q122 0 190.5 -50t140.5 -198l152 -383h287l-205 408q-125 250 -250 292q106 36 165.5 130t59.5 233q0 214 -124 322t-353 108h-456v-1493zM373 838v548h254q49 0 92 -8.5t84.5 -31.5t71 -58.5t47.5 -93t18 -131.5q0 -89 -97.5 -157t-215.5 -68h-254z " />
<glyph unicode="S" horiz-adv-x="1351" d="M150 1094q0 -170 101 -267t327 -141l122 -24q144 -29 216.5 -89.5t72.5 -126.5q0 -73 -99 -136.5t-261 -63.5q-225 0 -473 139v-319q259 -95 473 -95q281 0 426 112t145 329q0 183 -107.5 291t-332.5 151l-121 25q-164 30 -225.5 81t-61.5 150q0 118 89.5 182t254.5 64 q190 0 414 -109v197q-227 76 -436 76q-245 0 -384.5 -114t-139.5 -312z" />
<glyph unicode="T" horiz-adv-x="1562" d="M150 1323l530 20l-39 -1343h283l-41 1343l530 -20v170h-1263v-170z" />
<glyph unicode="U" horiz-adv-x="1443" d="M150 561q0 -292 144.5 -441t428.5 -149q281 0 425 149t144 441v932h-213l21 -768v-28q0 -213 -87 -315q-93 -108 -290 -108t-291 108q-90 103 -90 324v19l20 768h-212v-932z" />
<glyph unicode="V" horiz-adv-x="1667" d="M150 1493l520 -1493h329l519 1493h-209l-475 -1116l-474 1116h-210z" />
<glyph unicode="W" horiz-adv-x="2189" d="M150 1493l333 -1493h316l297 807l274 -807h295l375 1493h-195l-344 -1092l-323 711h-177l-354 -690l-303 1071h-194z" />
<glyph unicode="X" horiz-adv-x="1579" d="M150 0h327l314 535l311 -535h325l-491 696l461 797h-217l-373 -635l-373 635h-217l447 -797z" />
<glyph unicode="Y" horiz-adv-x="1558" d="M150 1493l489 -981v-512h272v512l498 981h-217l-412 -764l-413 764h-217z" />
<glyph unicode="Z" horiz-adv-x="1519" d="M150 0h1218v299h-967l945 1040v154h-1174v-170h922l-944 -1038v-285z" />
<glyph unicode="[" horiz-adv-x="673" d="M150 -270h423v223h-239v1460h239v143h-423v-1826z" />
<glyph unicode="\" horiz-adv-x="931" d="M150 1493l421 -1700l209 -6l-461 1700z" />
<glyph unicode="]" horiz-adv-x="673" d="M100 -57v-213h424v1826h-424v-143h240v-1470h-240z" />
<glyph unicode="^" horiz-adv-x="1581" d="M150 936h311l330 455l329 -455h312l-564 557h-155z" />
<glyph unicode="_" horiz-adv-x="1363" d="M150 -264v-178h1064v178h-1064z" />
<glyph unicode="`" horiz-adv-x="778" d="M150 1718l206 -375h273l-283 375h-196z" />
<glyph unicode="a" horiz-adv-x="1245" d="M150 326q0 -161 102 -258t272 -97q258 0 387 189v-160h185v639q0 257 -120 382.5t-364 125.5q-175 0 -381 -78v-149q170 92 363 92q159 -10 238 -83.5t79 -203.5v-18h-258q-503 0 -503 -381zM303 377q1 71 30 112t103 61.5t207 20.5h166v-41q0 -90 -13 -144.5 t-46.5 -84.5t-78 -39.5t-118.5 -9.5q-46 0 -76 2t-63 9t-53.5 20t-36 36.5t-21.5 57.5z" />
<glyph unicode="b" horiz-adv-x="1302" d="M170 1556h184l-18 -585q55 96 141 136t215 40q205 0 333 -162.5t128 -425.5t-128 -425.5t-333 -162.5q-108 0 -183.5 15t-124 46.5t-77 71.5t-49.5 99q-18 39 -30.5 217.5t-28.5 546t-29 589.5zM424 592q6 -47 10 -73t12.5 -59.5t18 -51.5t25.5 -39.5t37 -32t51 -20.5 t68.5 -13.5t88.5 -3.5q66 5 112.5 20t86 48t64.5 90.5t36 142.5q-6 200 -80.5 308t-218.5 108q-147 0 -229 -111t-82 -313z" />
<glyph unicode="c" horiz-adv-x="1185" d="M150 559q0 -270 149 -429t401 -159q180 0 336 72l-4 289q-30 -16 -61 -26t-68 -13.5t-59 -4.5h-28.5h-41.5q-46 1 -61 1q-183 9 -264.5 68.5t-94.5 201.5q0 207 95 324.5t272 117.5q158 0 315 -86v162q-149 70 -323 70q-261 0 -412 -157.5t-151 -430.5z" />
<glyph unicode="d" horiz-adv-x="1320" d="M150 559q0 -263 127.5 -425.5t330.5 -162.5q246 0 359 197v-168h184l20 1556h-184l-20 -606q-113 197 -359 197q-203 0 -330.5 -162.5t-127.5 -425.5zM283 580q0 203 83 318.5t230 115.5q280 0 289 -420q-2 -92 -20 -149.5t-57.5 -88t-89 -41t-128.5 -10.5 q-145 0 -214 63.5t-93 211.5z" />
<glyph unicode="e" d="M150 549q0 -263 156 -416t425 -162q215 0 416 86l-4 254q-61 -33 -138.5 -48.5t-122.5 -17t-145 -1.5q-80 4 -135 13.5t-107.5 33t-83 62.5t-49.5 102t-20 151h836v70q-19 237 -135 349.5t-343 121.5q-251 0 -395 -160t-155 -438zM362 766q0 108 96 196.5t242 88.5 q86 0 157.5 -45.5t110.5 -108.5t50 -129z" />
<glyph unicode="f" horiz-adv-x="964" d="M150 938h165l-28 -938h264l-31 938h293v182h-293l-8 99q0 100 26.5 131.5t98.5 31.5l166 -18v152l-164 20q-141 0 -227 -81t-86 -257l-11 -78h-165v-182z" />
<glyph unicode="g" horiz-adv-x="1320" d="M150 573q0 -259 126 -416t332 -157q117 0 208 47t140 121v-62q-9 -44 -25.5 -87t-47 -90.5t-70 -83t-99 -58.5t-128.5 -23q-163 0 -322 86v-327q168 -60 350 -60q135 0 228.5 33t160 111.5t99.5 208.5t39 323l30 981h-184l-20 -170q-114 197 -359 197q-206 0 -332 -157.5 t-126 -416.5zM260 584q0 200 82.5 310t230.5 110q149 0 231.5 -109.5t82.5 -310.5q0 -56 -8 -99t-21.5 -73t-37.5 -51t-48 -33t-61.5 -18.5t-70.5 -8.5t-81 -2q-55 0 -89 2.5t-69.5 12.5t-55.5 28.5t-38.5 50.5t-29 78.5t-17.5 112.5z" />
<glyph unicode="h" horiz-adv-x="1277" d="M150 0h225l-21 633q0 167 87.5 271t234.5 104q131 0 194 -77q55 -67 55 -217q0 -21 -1 -44l-29 -670h233l-20 676q0 232 -99 351.5t-292 119.5q-232 0 -363 -201l21 610h-185z" />
<glyph unicode="i" horiz-adv-x="534" d="M150 0h235q-46 436 -46 856q0 133 5 264h-164v-131q0 -551 -30 -989zM170 1323h184l-10 233h-164z" />
<glyph unicode="j" horiz-adv-x="733" d="M49 -457l101 -2q180 7 263.5 111t88.5 319l39 1141l-174 2l-48 -1020q-4 -72 -11 -117.5t-18.5 -76.5t-34 -46.5t-49.5 -23t-73 -10.5h-78zM399 1323h185l-11 233h-163z" />
<glyph unicode="k" horiz-adv-x="1323" d="M150 0h245l-30 526l430 -526h379l-619 596l424 524h-236l-378 -442l10 878h-185z" />
<glyph unicode="l" horiz-adv-x="700" d="M150 0h401v227h-217q6 612 41 1239h-174q-39 -703 -51 -1466z" />
<glyph unicode="m" horiz-adv-x="1984" d="M150 0h256l-21 633q0 166 89 279.5t228 113.5q119 0 176.5 -77t57.5 -238l-90 -711h254l30 633q8 173 84.5 279t215.5 106q113 0 156.5 -75t43.5 -243l-69 -700h274l-20 676q0 226 -95 348.5t-270 122.5q-127 0 -214 -58t-157 -184q-41 117 -135 179.5t-219 62.5 q-121 0 -209 -49t-151 -152l20 174h-184z" />
<glyph unicode="n" horiz-adv-x="1308" d="M150 0h256l-31 643q0 168 83.5 261t248.5 93q121 0 174 -77t53 -240l-39 -680h262l-29 676q-21 471 -401 471q-104 0 -190 -42t-172 -110v135h-185z" />
<glyph unicode="o" d="M150 559q0 -275 136.5 -431.5t377.5 -156.5q240 0 377 156.5t137 431.5q0 276 -137 432t-377 156q-242 0 -378 -155.5t-136 -432.5zM344 592q0 195 86 307.5t234 112.5q147 0 233 -113.5t86 -306.5q0 -95 -21 -156.5t-66 -93t-98 -42.5t-134 -11q-65 0 -110.5 6.5 t-87.5 25t-67 51.5t-40 88t-15 132z" />
<glyph unicode="p" horiz-adv-x="1359" d="M150 -426h235l8 594q113 -197 359 -197q204 0 331 162t127 426t-127 426t-331 162q-246 0 -359 -197l31 154h-184v-844zM467 592q0 203 82.5 317.5t228.5 114.5q148 0 231 -114.5t83 -317.5q0 -80 -13.5 -137t-37 -92.5t-63 -55t-83.5 -26.5t-107 -7t-108.5 7t-88 27 t-68.5 54.5t-41 92t-15 137.5z" />
<glyph unicode="q" horiz-adv-x="1488" d="M150 559q0 -263 127.5 -425.5t330.5 -162.5q246 0 359 197l-56 -594l260 2l166 141l-225 217l64 1186h-179l-30 -170q-113 197 -359 197q-203 0 -330.5 -162.5t-127.5 -425.5zM272 586q0 203 83.5 318.5t230.5 115.5q146 0 229.5 -115.5t83.5 -318.5q0 -67 -9.5 -117 t-30 -83.5t-46 -55t-64.5 -32.5t-77.5 -15t-91.5 -4q-65 0 -108 6t-84 24t-64.5 51.5t-37.5 89.5t-14 136z" />
<glyph unicode="r" horiz-adv-x="978" d="M150 0h288l-41 559q0 393 293 393q39 0 55 -0.5t40.5 -6t43.5 -17.5l-2 188q-46 10 -82 10q-181 0 -348 -131v115h-170q6 -172 6 -307q1 -153 -7 -259q-14 -202 -76 -544z" />
<glyph unicode="s" horiz-adv-x="1155" d="M150 41q216 -70 393 -70q216 0 339.5 90.5t123.5 247.5q0 136 -82.5 208t-278.5 114l-63 14q-146 32 -201 73.5t-55 117.5q0 84 73.5 131t210.5 47q173 0 336 -80v153q-154 60 -358 60q-206 0 -318 -86t-112 -244q0 -128 74.5 -193.5t248.5 -101.5l64 -14 q175 -41 194 -66q23 -26 58 -88q0 -149 -250 -149q-195 0 -397 106v-270z" />
<glyph unicode="t" horiz-adv-x="999" d="M150 977h135l-11 -608q0 -209 85.5 -289t299.5 -80h191v274h-191q-61 0 -94.5 7.5t-57 31.5t-31 64.5t-7.5 111.5l10 488h260v143h-260l10 279h-194l-10 -279h-135v-143z" />
<glyph unicode="u" horiz-adv-x="1247" d="M150 442q0 -231 100.5 -351t292.5 -120q229 0 360 201l-8 -172h182l21 1120h-203l-21 -475q-11 -167 -92.5 -260.5t-228.5 -93.5q-122 0 -180.5 77.5t-69.5 239.5v512h-153v-678z" />
<glyph unicode="v" horiz-adv-x="1390" d="M150 1120l409 -1120h270l410 1120h-195l-350 -821l-350 821h-194z" />
<glyph unicode="w" horiz-adv-x="1802" d="M150 1120l292 -1120h248l211 508l203 -508h256l293 1120h-185l-229 -784l-209 414h-258l-209 -414l-229 784h-184z" />
<glyph unicode="x" horiz-adv-x="1425" d="M150 0h296l277 389l256 -389h297l-436 524l395 596h-186l-338 -458l-308 458h-196l389 -583z" />
<glyph unicode="y" horiz-adv-x="1390" d="M150 1120l479 -1028l-78 -158q-34 -41 -50 -59t-43 -40t-54.5 -30t-63.5 -8h-129v-243h168q66 0 112.5 12.5t94 48.5t90.5 104t92 177l471 1224h-195l-303 -651l-397 651h-194z" />
<glyph unicode="z" horiz-adv-x="1208" d="M150 0h899v248h-623l633 704v168h-864v-137h667l-712 -715v-268z" />
<glyph unicode="{" horiz-adv-x="1058" d="M150 541h61q95 -2 146 -29t73 -83t27 -161l-4 -237q3 -116 20 -183.5t64.5 -112.5t123 -62t203.5 -19l62 -2l2 205h-68q-70 1 -112.5 11.5t-66 36t-32 57t-12.5 87.5l4 250q-6 141 -47 210t-148 97q111 25 157.5 96t49.5 226l4 248q1 51 4 82t13 57.5t24 40t42 24 t61.5 14.5t87.5 7l67 -2l2 143h-61q-87 -2 -147 -8.5t-109.5 -22.5t-79 -40.5t-50.5 -65.5t-29.5 -94t-10.5 -129l-2 -240q-2 -76 -14.5 -123.5t-44 -77.5t-77.5 -42.5t-120 -16.5l-61 2z" />
<glyph unicode="|" horiz-adv-x="509" d="M150 -483h190l31 1009l39 1039h-170z" />
<glyph unicode="}" horiz-adv-x="911" d="M117 -180v-154h63q129 0 206 15.5t126 59t66.5 112t17.5 182.5v239q0 151 54.5 209t195.5 58h61v143h-61q-141 0 -195.5 57.5t-54.5 206.5v240q0 114 -17.5 182.5t-66.5 111.5t-126 58.5t-206 15.5h-63v-143h69q140 0 183 -43.5t43 -185.5v-248q0 -156 44.5 -227.5 t155.5 -96.5q-110 -28 -155 -98.5t-45 -216.5v-248q0 -143 -42.5 -186t-183.5 -43h-69z" />
<glyph unicode="~" horiz-adv-x="1581" d="M150 436q57 49 78.5 67t68.5 54t74.5 50t65 27t71.5 13q95 0 250 -82l20 -8q1 -1 7.5 -2.5t9.5 -3.5q146 -88 256 -88q43 0 85 12t92 41.5t82 52t94 69.5q19 14 28 21v158q-103 -85 -187 -122.5t-172 -37.5q-94 0 -248 62q-27 9 -37 14q-151 60 -258 60q-96 0 -185 -35 t-195 -113v-209z" />
<glyph unicode="&#xa1;" horiz-adv-x="600" d="M150 1260h243l-31 274h-182zM174 651l14 -655l263 8l-33 655l-33 357l-203 -8z" />
<glyph unicode="&#xa2;" horiz-adv-x="1196" d="M150 559q-3 -258 126.5 -413.5t368.5 -180.5l-4 -287l102 -2l5 283q145 11 280 68l4 249q-143 -73 -280 -79l16 813q131 -6 276 -90l3 141q-129 62 -277 74l4 286l-102 2l-4 -286q-243 -19 -377.5 -169.5t-140.5 -408.5zM344 555q4 203 88.5 320.5t231.5 132.5l-15 -805 q-146 20 -226.5 113.5t-78.5 238.5z" />
<glyph unicode="&#xa3;" horiz-adv-x="1312" d="M150 0l993 -16l6 219l-557 10l12 434l391 -6l2 123l-391 6l6 215q4 142 32.5 218.5t84 108t158.5 36.5q117 0 270 -86l6 182q-168 63 -289 63q-235 -6 -344 -121t-116 -374l-6 -238l-199 2l-4 -123l198 -2l-12 -436l-235 4z" />
<glyph unicode="&#xa4;" horiz-adv-x="1417" d="M150 197l112 -115l207 207q124 -74 240 -74q120 0 235 78l209 -207l113 113l-209 207q78 112 78 235q0 121 -72 240l205 206l-115 115l-207 -209q-116 74 -237 74q-126 0 -236 -76l-207 207l-114 -115l206 -206q-75 -109 -75 -236q0 -116 73 -238zM438 643q0 112 79 189 t192 77q114 0 192 -77t78 -189q0 -55 -20 -94t-58.5 -60.5t-85 -30.5t-106.5 -9q-126 0 -198.5 44t-72.5 150z" />
<glyph unicode="&#xa5;" horiz-adv-x="1456" d="M150 1493l307 -586h-264v-123h331l105 -155v-51h-416v-162h416l-31 -416h262l-20 416h413v162h-415v51l84 155h331v123h-264l318 586h-211l-367 -700l-369 700h-210z" />
<glyph unicode="&#xa6;" horiz-adv-x="468" d="M150 -483h190l31 1009h-170zM201 633h170l39 932h-170z" />
<glyph unicode="&#xa7;" horiz-adv-x="1138" d="M150 723q0 -103 63 -178q65 -77 279 -197l24 -14q221 -123 221 -205q0 -72 -53 -100.5t-162 -28.5q-121 0 -293 78v-215q174 -58 316 -58q173 0 275 84.5t102 225.5q0 126 -119 225q184 106 184 283q0 103 -63 178q-67 75 -279 196q-11 6 -39 23q-207 118 -207 205 q0 72 54 111.5t151 39.5q113 0 283 -78v164q-155 58 -305 58q-166 0 -266.5 -79t-100.5 -210q0 -135 119 -225q-184 -100 -184 -283zM311 778q0 92 125 183q251 -138 320 -201q69 -66 69 -144q0 -94 -125 -182q-249 135 -317 203q-72 66 -72 141z" />
<glyph unicode="&#xa8;" horiz-adv-x="937" d="M150 1350h219v217h-219v-217zM569 1350h217v217h-217v-217z" />
<glyph unicode="&#xa9;" horiz-adv-x="1781" d="M150 741q0 -305 217 -522q219 -219 524 -219t524 219q217 217 217 522q0 308 -217 525q-219 219 -524 219t-524 -219q-217 -217 -217 -525zM250 741q0 263 190 453q188 188 451 188q264 0 452 -188q187 -190 187 -453q0 -275 -187 -419q-203 -140 -452 -140 q-248 0 -451 140q-190 169 -190 419zM449 741q0 -207 125.5 -329.5t340.5 -122.5q146 0 275 57v186q-123 -63 -252 -63q-147 0 -236.5 82.5t-89.5 189.5q0 160 85 261.5t231 101.5q127 0 262 -66v99q-128 55 -275 55q-215 0 -340.5 -121t-125.5 -330z" />
<glyph unicode="&#xaa;" horiz-adv-x="1011" d="M150 946q0 -114 75.5 -181t204.5 -67q189 0 281 131v-112h149v448q0 180 -89.5 267.5t-272.5 87.5q-142 0 -287 -56v-127q136 68 266 68q234 0 234 -182v-4h-183q-187 0 -282.5 -69t-95.5 -204zM174 469h688v123h-688v-123zM287 1024q0 76 63 113q66 32 223 32h127v-28 q0 -115 -64.5 -186.5t-168.5 -71.5q-82 0 -131 38.5t-49 102.5z" />
<glyph unicode="&#xab;" horiz-adv-x="1261" d="M150 518l454 -432l47 227l-291 281l312 256l6 190l-483 -401zM584 504l454 -434l47 229l-290 279l311 258l4 190l-481 -401z" />
<glyph unicode="&#xac;" horiz-adv-x="1611" d="M150 672l1114 20l-50 -405h248l-30 575h-1282v-190z" />
<glyph unicode="&#xad;" horiz-adv-x="845" d="M150 479l538 8l8 166l-538 -10z" />
<glyph unicode="&#xae;" horiz-adv-x="1781" d="M150 741q0 -305 217 -522q219 -219 524 -219t524 219q217 217 217 522q0 308 -217 525q-219 219 -524 219t-524 -219q-217 -217 -217 -525zM250 791q0 239 190 417q189 174 451 174q263 0 452 -174q187 -175 187 -417q0 -244 -187 -416q-188 -176 -452 -176 q-263 0 -451 176q-190 175 -190 416zM586 338h205v356h57q12 0 49 -24q36 -26 96 -123l129 -209h172l-137 223q-47 74 -80 113q-37 40 -57 45q97 17 149 73t52 142q0 240 -351 240h-284v-836zM791 846v274h122q109 0 153 -31t44 -108q0 -74 -44 -104.5t-153 -30.5h-122z" />
<glyph unicode="&#xaf;" horiz-adv-x="897" d="M150 1378h598v148h-598v-148z" />
<glyph unicode="&#xb0;" horiz-adv-x="933" d="M150 1200q0 -135 90 -225t225 -90q134 0 226.5 91.5t92.5 223.5q0 136 -92 225q-89 95 -225 95q-132 0 -224.5 -93.5t-92.5 -226.5zM276 1268q0 72 56 123t135 51q78 0 134 -51t56 -123t-55 -122t-135 -50t-135.5 50t-55.5 122z" />
<glyph unicode="&#xb1;" horiz-adv-x="1581" d="M150 0h1282v190h-1282v-190zM150 727h557v-387h167v387h558v170h-558v387h-167v-387h-557v-170z" />
<glyph unicode="&#xb2;" horiz-adv-x="897" d="M150 668h598v166h-424q11 10 42.5 35.5t45.5 37.5q195 168 248 224q81 86 81 149q0 108 -86.5 174t-230.5 66q-114 0 -268 -56v-123q143 70 245 70q85 0 138 -40.5t53 -106.5q0 -18 -12 -39t-46 -55t-64.5 -61t-101 -88t-120.5 -106l-98 -86v-161z" />
<glyph unicode="&#xb3;" horiz-adv-x="919" d="M150 694q143 -41 251 -41q178 0 272.5 66.5t94.5 191.5q0 82 -50.5 136t-142.5 73q82 19 127.5 66.5t45.5 116.5q0 100 -84.5 158.5t-229.5 58.5q-107 0 -256 -35v-115q144 41 223 41q95 0 146 -31t51 -88q0 -60 -49 -91.5t-143 -31.5h-95v-108h86q219 0 219 -150 q0 -28 -9.5 -47t-25 -30t-45 -17t-60.5 -8t-79 -2q-138 0 -237 51z" />
<glyph unicode="&#xb4;" horiz-adv-x="833" d="M150 1321h169l363 418h-219z" />
<glyph unicode="&#xb5;" horiz-adv-x="1429" d="M150 1120l20 -1546h184l-10 553q82 -156 287 -156q190 0 293 158q30 -158 166 -158q36 0 92 35q66 44 98 60v147q-20 -6 -45 -16q-17 -7 -25 -7q-112 9 -112 68l10 862h-184l-11 -442q0 -336 -297 -336q-272 0 -272 293l-10 495z" />
<glyph unicode="&#xb6;" horiz-adv-x="1433" d="M150 1071q0 -88 33 -166t84.5 -129.5t109.5 -84.5t112 -42l-69 -846h321v1567h191l-10 -1567h360l-219 1690h-438q-215 0 -345 -116t-130 -306z" />
<glyph unicode="&#xb7;" horiz-adv-x="512" d="M150 584h210v254h-210v-254z" />
<glyph unicode="&#xb8;" horiz-adv-x="714" d="M150 -240v-131q86 -24 176 -24q237 0 237 180q0 92 -108 215h-119q88 -122 88 -178q0 -94 -119 -94q-92 0 -155 32z" />
<glyph unicode="&#xb9;" horiz-adv-x="872" d="M150 1348l223 41v-537h-203v-184h553v184h-207v651h-135l-231 -39v-116z" />
<glyph unicode="&#xba;" horiz-adv-x="1071" d="M150 1108q0 -190 104 -300t283 -110q180 0 282.5 109.5t102.5 300.5q0 192 -102.5 302t-282.5 110q-179 0 -283 -110t-104 -302zM193 469h688v123h-688v-123zM305 1192q0 114 63.5 182t168.5 68q106 0 168.5 -67.5t62.5 -182.5q0 -114 -62.5 -182t-168.5 -68 q-105 0 -168.5 68t-63.5 182z" />
<glyph unicode="&#xbb;" horiz-adv-x="1251" d="M150 356l28 -231l490 391l-33 125l-447 442l-10 -190l287 -285zM584 334l26 -234l492 394l-35 124l-446 443l-11 -193l287 -282z" />
<glyph unicode="&#xbc;" horiz-adv-x="1972" d="M150 1348l223 41v-611h-203v-110h553v110h-207v725h-135l-231 -39v-116zM500 -29h159l932 1549h-159zM1128 188h414v-186h146v186h135v109h-135v541h-166l-394 -529v-121zM1235 297l307 420v-420h-307z" />
<glyph unicode="&#xbd;" horiz-adv-x="1980" d="M150 1348l223 41v-611h-203v-110h553v110h-207v725h-135l-231 -39v-116zM449 -29h159l932 1549h-160zM1233 2h598v115h-424q11 9 40 34t46 39q332 285 332 424q0 108 -87.5 174t-232.5 66q-114 0 -266 -55v-123q141 69 246 69q85 0 136.5 -40.5t51.5 -106.5 q0 -94 -344 -399l-96 -86v-111z" />
<glyph unicode="&#xbe;" horiz-adv-x="1959" d="M150 694q143 -41 251 -41q178 0 272.5 66.5t94.5 191.5q0 82 -50.5 136t-142.5 73q82 19 127.5 66.5t45.5 116.5q0 100 -84.5 158.5t-229.5 58.5q-107 0 -256 -35v-115q144 41 223 41q95 0 146 -31t51 -88q0 -60 -49 -91.5t-143 -31.5h-95v-108h86q219 0 219 -150 q0 -71 -60 -110t-169 -39q-137 0 -237 53v-121zM526 -29h160l934 1549h-162zM1116 188h416v-186h143v186h135v109h-135v541h-166l-393 -529v-121zM1223 297l309 420v-420h-309z" />
<glyph unicode="&#xbf;" horiz-adv-x="1097" d="M150 324q0 -158 112 -255.5t295 -97.5q203 0 389 113v248q-198 -137 -352 -137q-109 0 -175.5 54.5t-66.5 143.5q0 95 111 197l90 88q44 49 58.5 66t32 49t21 62t3.5 81v156h-160v-123q0 -94 -14 -135q-8 -26 -28 -53t-67 -72l-88 -86q-88 -85 -124.5 -153.5 t-36.5 -145.5zM502 1239h200v254h-200v-254z" />
<glyph unicode="&#xc0;" horiz-adv-x="1667" d="M150 0h274l76 244h671l58 -244h289l-588 1493h-191zM516 2298l207 -375h272l-282 375h-197zM559 481l275 828l276 -828h-551z" />
<glyph unicode="&#xc1;" horiz-adv-x="1667" d="M150 0h274l76 244h671l58 -244h289l-588 1493h-191zM559 481l275 828l276 -828h-551zM764 1905h170l362 417h-219z" />
<glyph unicode="&#xc2;" horiz-adv-x="1667" d="M150 0h274l76 244h671l58 -244h289l-588 1493h-191zM526 1501h140l180 246l180 -246h139l-245 377h-148zM559 481l275 828l276 -828h-551z" />
<glyph unicode="&#xc3;" horiz-adv-x="1667" d="M150 0h274l76 244h671l58 -244h289l-588 1493h-191zM516 1884h125q3 81 21 119q18 37 55 37q24 0 69 -39l56 -55q68 -62 139 -62q91 0 142.5 74t54.5 209h-127q0 -79 -19 -119q-18 -37 -57 -37q-26 0 -68 39l-57 55q-68 62 -139 62q-91 0 -141.5 -74t-53.5 -209zM559 481 l275 828l276 -828h-551z" />
<glyph unicode="&#xc4;" horiz-adv-x="1667" d="M150 0h274l76 244h671l58 -244h289l-588 1493h-191zM526 1624h219v217h-219v-217zM559 481l275 828l276 -828h-551zM946 1624h217v217h-217v-217z" />
<glyph unicode="&#xc5;" horiz-adv-x="1667" d="M150 0h274l76 244h671l58 -244h289l-588 1493h-191zM559 481l275 828l276 -828h-551zM571 1798q0 -115 79.5 -194.5t195.5 -79.5t195 79t79 195t-79.5 195.5t-194.5 79.5q-116 0 -195.5 -79.5t-79.5 -195.5zM694 1798q0 64 44 108t108 44t107.5 -44.5t43.5 -107.5 t-43.5 -107t-107.5 -44q-65 0 -108.5 43.5t-43.5 107.5z" />
<glyph unicode="&#xc6;" horiz-adv-x="2172" d="M102 0h375l-8 262h526v-262h965v260h-762v281h713v170h-713v612h741v170h-1212zM537 430l329 905h129v-905h-458z" />
<glyph unicode="&#xc7;" horiz-adv-x="1503" d="M150 745q0 360 195 567.5t534 207.5q265 0 475 -142v-213q-201 189 -463 189q-256 0 -392.5 -156.5t-136.5 -452.5q4 -254 134 -361.5t395 -107.5q260 0 463 191v-352q-203 -138 -449 -144q84 -106 84 -186q0 -180 -237 -180q-92 0 -177 24v131q63 -32 156 -32 q119 0 119 94q0 53 -72 153q-295 31 -461.5 235t-166.5 535z" />
<glyph unicode="&#xc8;" horiz-adv-x="1261" d="M150 0h962v309h-760v402h711v170h-711v442h742v170h-944v-1493zM268 2347l207 -375h273l-283 375h-197z" />
<glyph unicode="&#xc9;" horiz-adv-x="1261" d="M150 0h962v309h-760v402h711v170h-711v442h742v170h-944v-1493zM516 1954h170l363 418h-220z" />
<glyph unicode="&#xca;" horiz-adv-x="1261" d="M150 0h962v309h-760v402h711v170h-711v442h742v170h-944v-1493zM279 1550h139l180 246l180 -246h140l-246 377h-148z" />
<glyph unicode="&#xcb;" horiz-adv-x="1261" d="M150 0h962v309h-760v402h711v170h-711v442h742v170h-944v-1493zM279 1673h219v217h-219v-217zM698 1673h217v217h-217v-217z" />
<glyph unicode="&#xcc;" horiz-adv-x="542" d="M-49 2396l207 -375h272l-283 375h-196zM150 0h241q-9 174 -15 382t-7.5 355.5t-3.5 391t-3 364.5h-172q-2 -94 -7 -453t-12 -587t-21 -453z" />
<glyph unicode="&#xcd;" horiz-adv-x="542" d="M150 0h241q-9 174 -15 382t-7.5 355.5t-3.5 391t-3 364.5h-172q-2 -94 -7 -453t-12 -587t-21 -453zM199 2003h170l362 418h-219z" />
<glyph unicode="&#xce;" horiz-adv-x="542" d="M-39 1599h139l181 246l180 -246h139l-246 377h-147zM150 0h241q-9 174 -15 382t-7.5 355.5t-3.5 391t-3 364.5h-172q-2 -94 -7 -453t-12 -587t-21 -453z" />
<glyph unicode="&#xcf;" horiz-adv-x="542" d="M-39 1722h219v217h-219v-217zM150 0h241q-9 174 -15 382t-7.5 355.5t-3.5 391t-3 364.5h-172q-2 -94 -7 -453t-12 -587t-21 -453zM381 1722h217v217h-217v-217z" />
<glyph unicode="&#xd0;" horiz-adv-x="1771" d="M133 700h203v-700h416q431 0 634 181.5t203 566.5q0 384 -203 564.5t-634 180.5h-416v-649h-203v-144zM539 305v395h335v144h-335v483h241q310 0 453 -139t143 -440q0 -67 -7 -121t-20 -97t-36 -76t-49 -57t-65.5 -40t-79.5 -26.5t-97 -16t-112 -7.5t-130 -2h-241z" />
<glyph unicode="&#xd1;" horiz-adv-x="1449" d="M150 0h256l-60 1249l662 -1249h292v1493h-186l-31 -1208l-641 1177h-252zM408 1982h124q3 81 21 119q18 37 55 37q25 0 70 -39l55 -55q68 -62 139 -62q91 0 142.5 74t54.5 209h-127q0 -81 -18 -119q-18 -37 -58 -37q-25 0 -67 39l-58 56q-66 61 -139 61q-90 0 -140.5 -74 t-53.5 -209z" />
<glyph unicode="&#xd2;" horiz-adv-x="1681" d="M150 745q0 -354 188 -564t504 -210q315 0 502.5 210.5t187.5 563.5t-187.5 564t-502.5 211t-503.5 -211t-188.5 -564zM362 745q0 282 130 446.5t350 164.5t348.5 -164.5t128.5 -446.5q0 -113 -32.5 -191t-97.5 -121t-148 -61t-199 -18t-199.5 18t-149 61t-98.5 121 t-33 191zM512 2396l207 -375h272l-282 375h-197z" />
<glyph unicode="&#xd3;" horiz-adv-x="1681" d="M150 745q0 -354 188 -564t504 -210q315 0 502.5 210.5t187.5 563.5t-187.5 564t-502.5 211t-503.5 -211t-188.5 -564zM362 745q0 282 130 446.5t350 164.5t348.5 -164.5t128.5 -446.5q0 -113 -32.5 -191t-97.5 -121t-148 -61t-199 -18t-199.5 18t-149 61t-98.5 121 t-33 191zM760 2003h170l362 418h-219z" />
<glyph unicode="&#xd4;" horiz-adv-x="1681" d="M150 745q0 -354 188 -564t504 -210q315 0 502.5 210.5t187.5 563.5t-187.5 564t-502.5 211t-503.5 -211t-188.5 -564zM362 745q0 282 130 446.5t350 164.5t348.5 -164.5t128.5 -446.5q0 -113 -32.5 -191t-97.5 -121t-148 -61t-199 -18t-199.5 18t-149 61t-98.5 121 t-33 191zM522 1599h140l180 246l180 -246h139l-246 377h-147z" />
<glyph unicode="&#xd5;" horiz-adv-x="1681" d="M150 745q0 -354 188 -564t504 -210q315 0 502.5 210.5t187.5 563.5t-187.5 564t-502.5 211t-503.5 -211t-188.5 -564zM362 745q0 282 130 446.5t350 164.5t348.5 -164.5t128.5 -446.5q0 -113 -32.5 -191t-97.5 -121t-148 -61t-199 -18t-199.5 18t-149 61t-98.5 121 t-33 191zM512 1982h125q3 84 20 119q18 37 56 37q24 0 69 -39l56 -55q68 -62 139 -62q91 0 142.5 74t54.5 209h-127q0 -79 -19 -119q-18 -37 -57 -37q-26 0 -68 39l-57 56q-66 61 -139 61q-91 0 -141.5 -74t-53.5 -209z" />
<glyph unicode="&#xd6;" horiz-adv-x="1681" d="M150 745q0 -354 188 -564t504 -210q315 0 502.5 210.5t187.5 563.5t-187.5 564t-502.5 211t-503.5 -211t-188.5 -564zM362 745q0 282 130 446.5t350 164.5t348.5 -164.5t128.5 -446.5q0 -113 -32.5 -191t-97.5 -121t-148 -61t-199 -18t-199.5 18t-149 61t-98.5 121 t-33 191zM522 1722h219v217h-219v-217zM942 1722h217v217h-217v-217z" />
<glyph unicode="&#xd7;" horiz-adv-x="1404" d="M150 285l167 -172l379 379l379 -379l170 172l-377 377l387 389l-170 170l-389 -390l-358 361l-168 -172l356 -358z" />
<glyph unicode="&#xd8;" horiz-adv-x="1681" d="M150 745q0 353 188.5 564t503.5 211q107 0 213 -29l35 98l151 -6l-45 -151q160 -93 248 -271.5t88 -415.5q0 -353 -187.5 -563.5t-502.5 -210.5q-30 0 -80 4l-19 -59l-231 8l37 105q-189 82 -294 268.5t-105 447.5zM362 745q0 -174 77.5 -262t226.5 -116l333 962 q-70 27 -157 27q-220 0 -350 -164.5t-130 -446.5zM874 354q108 2 186 22t138.5 64t90.5 120t30 185q0 166 -46.5 294.5t-131.5 205.5z" />
<glyph unicode="&#xd9;" horiz-adv-x="1443" d="M150 561q0 -292 144.5 -441t428.5 -149q281 0 425 149t144 441v932h-213l21 -768q6 -236 -87 -343.5t-290 -107.5q-198 0 -291.5 107.5t-89.5 343.5l20 768h-212v-932zM391 2396l207 -375h272l-282 375h-197z" />
<glyph unicode="&#xda;" horiz-adv-x="1443" d="M150 561q0 -292 144.5 -441t428.5 -149q281 0 425 149t144 441v932h-213l21 -768q6 -236 -87 -343.5t-290 -107.5q-198 0 -291.5 107.5t-89.5 343.5l20 768h-212v-932zM639 2003h170l362 418h-219z" />
<glyph unicode="&#xdb;" horiz-adv-x="1443" d="M150 561q0 -292 144.5 -441t428.5 -149q281 0 425 149t144 441v932h-213l21 -768q6 -236 -87 -343.5t-290 -107.5q-198 0 -291.5 107.5t-89.5 343.5l20 768h-212v-932zM401 1599h140l180 246l180 -246h139l-245 377h-148z" />
<glyph unicode="&#xdc;" horiz-adv-x="1443" d="M150 561q0 -292 144.5 -441t428.5 -149q281 0 425 149t144 441v932h-213l21 -768q6 -236 -87 -343.5t-290 -107.5q-198 0 -291.5 107.5t-89.5 343.5l20 768h-212v-932zM401 1722h220v217h-220v-217zM821 1722h217v217h-217v-217z" />
<glyph unicode="&#xdd;" horiz-adv-x="1558" d="M150 1493l489 -981v-512h272v512l498 981h-217l-412 -764l-413 764h-217zM696 2003h170l363 418h-219z" />
<glyph unicode="&#xde;" horiz-adv-x="1263" d="M150 0h202v338h254q250 0 379 113t129 333t-128.5 332.5t-379.5 112.5h-254v264h-202v-1493zM352 504v559h254q141 0 218 -73t77 -206q0 -135 -77 -207.5t-218 -72.5h-254z" />
<glyph unicode="&#xdf;" horiz-adv-x="1421" d="M213 0h276l-49 1133q20 169 87 240t198 71q44 0 70 -2t57.5 -10t53 -24.5t46.5 -45t48 -71t49 -103.5q-98 -14 -164 -43t-101 -73.5t-49 -94.5t-14 -117q0 -43 10 -81.5t35.5 -80t38.5 -60t49 -63.5l82 -55q104 -64 131 -104q29 -47 29 -84q0 -62 -60.5 -94.5 t-177.5 -32.5q-128 0 -285 59v-244q146 -49 275 -49q211 0 322.5 91.5t111.5 263.5q0 104 -50.5 175t-209.5 173l-57 37q-66 42 -94.5 82t-28.5 88q0 97 83 154t234 65q-3 224 -112 340t-318 116q-218 0 -337.5 -109t-119.5 -310z" />
<glyph unicode="&#xe0;" horiz-adv-x="1245" d="M150 326q0 -161 102 -258t272 -97q258 0 387 189v-160h185v639q0 257 -120 382.5t-364 125.5q-175 0 -381 -78v-149q170 92 363 92q159 -10 238 -83.5t79 -203.5v-18h-258q-503 0 -503 -381zM303 377q1 71 30 112t103 61.5t207 20.5h166v-41q0 -90 -13 -144.5 t-46.5 -84.5t-78 -39.5t-118.5 -9.5q-46 0 -76 2t-63 9t-53.5 20t-36 36.5t-21.5 57.5zM322 2023l206 -374h273l-283 374h-196z" />
<glyph unicode="&#xe1;" horiz-adv-x="1245" d="M150 326q0 -161 102 -258t272 -97q258 0 387 189v-160h185v639q0 257 -120 382.5t-364 125.5q-175 0 -381 -78v-149q170 92 363 92q159 -10 238 -83.5t79 -203.5v-18h-258q-503 0 -503 -381zM303 377q1 71 30 112t103 61.5t207 20.5h166v-41q0 -90 -13 -144.5 t-46.5 -84.5t-78 -39.5t-118.5 -9.5q-46 0 -76 2t-63 9t-53.5 20t-36 36.5t-21.5 57.5zM569 1630h170l363 418h-219z" />
<glyph unicode="&#xe2;" horiz-adv-x="1245" d="M150 326q0 -161 102 -258t272 -97q258 0 387 189v-160h185v639q0 257 -120 382.5t-364 125.5q-175 0 -381 -78v-149q170 92 363 92q159 -10 238 -83.5t79 -203.5v-18h-258q-503 0 -503 -381zM303 377q1 71 30 112t103 61.5t207 20.5h166v-41q0 -90 -13 -144.5 t-46.5 -84.5t-78 -39.5t-118.5 -9.5q-46 0 -76 2t-63 9t-53.5 20t-36 36.5t-21.5 57.5zM332 1227h139l180 246l180 -246h140l-246 377h-147z" />
<glyph unicode="&#xe3;" horiz-adv-x="1245" d="M150 326q0 -161 102 -258t272 -97q258 0 387 189v-160h185v639q0 257 -120 382.5t-364 125.5q-175 0 -381 -78v-149q170 92 363 92q159 -10 238 -83.5t79 -203.5v-18h-258q-503 0 -503 -381zM303 377q1 71 30 112t103 61.5t207 20.5h166v-41q0 -90 -13 -144.5 t-46.5 -84.5t-78 -39.5t-118.5 -9.5q-46 0 -76 2t-63 9t-53.5 20t-36 36.5t-21.5 57.5zM322 1610h124q3 81 21 119q17 36 55 36q25 0 70 -39l55 -55q66 -61 139 -61q91 0 142.5 73.5t54.5 208.5h-127q0 -80 -18 -118q-18 -37 -58 -37q-25 0 -67 39l-58 55q-66 61 -139 61 q-91 0 -141 -73.5t-53 -208.5z" />
<glyph unicode="&#xe4;" horiz-adv-x="1245" d="M150 326q0 -161 102 -258t272 -97q258 0 387 189v-160h185v639q0 257 -120 382.5t-364 125.5q-175 0 -381 -78v-149q170 92 363 92q159 -10 238 -83.5t79 -203.5v-18h-258q-503 0 -503 -381zM303 377q1 71 30 112t103 61.5t207 20.5h166v-41q0 -90 -13 -144.5 t-46.5 -84.5t-78 -39.5t-118.5 -9.5q-46 0 -76 2t-63 9t-53.5 20t-36 36.5t-21.5 57.5zM332 1350h219v217h-219v-217zM752 1350h217v217h-217v-217z" />
<glyph unicode="&#xe5;" horiz-adv-x="1245" d="M150 326q0 -161 102 -258t272 -97q258 0 387 189v-160h185v639q0 257 -120 382.5t-364 125.5q-175 0 -381 -78v-149q170 92 363 92q159 -10 238 -83.5t79 -203.5v-18h-258q-503 0 -503 -381zM303 377q1 71 30 112t103 61.5t207 20.5h166v-41q0 -90 -13 -144.5 t-46.5 -84.5t-78 -39.5t-118.5 -9.5q-46 0 -76 2t-63 9t-53.5 20t-36 36.5t-21.5 57.5zM377 1524q0 -116 79.5 -195.5t194.5 -79.5t195 79.5t80 195.5q0 115 -79.5 194.5t-195.5 79.5q-115 0 -194.5 -79t-79.5 -195zM500 1524q0 64 43 107.5t108 43.5q64 0 108 -44t44 -107 t-44 -107.5t-108 -44.5t-107.5 43.5t-43.5 108.5z" />
<glyph unicode="&#xe6;" horiz-adv-x="2217" d="M223 326q0 -167 105.5 -261t294.5 -94q288 0 432 240q153 -240 491 -240q66 0 146.5 20t128.5 38.5t141 56.5v264q-198 -104 -406 -104q-175 0 -280.5 95t-118.5 234h848v91q0 95 -35 182t-97.5 153.5t-156 106t-203.5 39.5q-268 0 -417 -184q-54 88 -161 136t-249 48 q-175 0 -381 -78v-131q170 92 363 92q71 0 133.5 -25.5t101 -64t60.5 -80t22 -76.5v-16h-258q-259 0 -381.5 -100t-122.5 -342zM408 395q0 59 13.5 98.5t39.5 65.5t75.5 40t110.5 19t156 5h182v-33q0 -186 -89 -275.5t-249 -89.5q-110 0 -174.5 46t-64.5 124zM1163 719 q16 127 113 226t240 99q87 0 158.5 -51.5t108 -124.5t36.5 -147z" />
<glyph unicode="&#xe7;" horiz-adv-x="1185" d="M150 559q0 273 151 430.5t412 157.5q174 0 323 -70v-162q-157 86 -315 86q-177 0 -272 -117.5t-95 -324.5q13 -142 94.5 -201.5t264.5 -68.5q15 0 61.5 -1t69 0t59.5 4.5t68 13.5t61 26l4 -289q-128 -61 -280 -70q86 -105 86 -188q0 -180 -238 -180q-90 0 -176 24v131 q63 -32 156 -32q118 0 118 94q0 50 -69 153q-224 22 -353.5 177.5t-129.5 406.5z" />
<glyph unicode="&#xe8;" d="M150 549q0 -263 156 -416t425 -162q215 0 416 86l-4 254q-61 -33 -138.5 -48.5t-122.5 -17t-145 -1.5q-80 4 -135 13.5t-107.5 33t-83 62.5t-49.5 102t-20 151h836v70q-19 237 -135 349.5t-343 121.5q-251 0 -395 -160t-155 -438zM344 2023l207 -374h272l-282 374h-197z M362 766q0 108 96 196.5t242 88.5q86 0 157.5 -45.5t110.5 -108.5t50 -129z" />
<glyph unicode="&#xe9;" d="M150 549q0 -263 156 -416t425 -162q215 0 416 86l-4 254q-61 -33 -138.5 -48.5t-122.5 -17t-145 -1.5q-80 4 -135 13.5t-107.5 33t-83 62.5t-49.5 102t-20 151h836v70q-19 237 -135 349.5t-343 121.5q-251 0 -395 -160t-155 -438zM362 766q0 108 96 196.5t242 88.5 q86 0 157.5 -45.5t110.5 -108.5t50 -129zM592 1630h170l362 418h-219z" />
<glyph unicode="&#xea;" d="M150 549q0 -263 156 -416t425 -162q215 0 416 86l-4 254q-61 -33 -138.5 -48.5t-122.5 -17t-145 -1.5q-80 4 -135 13.5t-107.5 33t-83 62.5t-49.5 102t-20 151h836v70q-19 237 -135 349.5t-343 121.5q-251 0 -395 -160t-155 -438zM354 1227h140l180 246l180 -246h139 l-245 377h-148zM362 766q0 108 96 196.5t242 88.5q86 0 157.5 -45.5t110.5 -108.5t50 -129z" />
<glyph unicode="&#xeb;" d="M150 549q0 -263 156 -416t425 -162q215 0 416 86l-4 254q-61 -33 -138.5 -48.5t-122.5 -17t-145 -1.5q-80 4 -135 13.5t-107.5 33t-83 62.5t-49.5 102t-20 151h836v70q-19 237 -135 349.5t-343 121.5q-251 0 -395 -160t-155 -438zM354 1350h219v217h-219v-217zM362 766 q0 108 96 196.5t242 88.5q86 0 157.5 -45.5t110.5 -108.5t50 -129zM774 1350h217v217h-217v-217z" />
<glyph unicode="&#xec;" horiz-adv-x="784" d="M150 1638l206 -374h273l-283 374h-196zM451 0h184v1120h-184v-1120z" />
<glyph unicode="&#xed;" horiz-adv-x="833" d="M150 1221h169l363 417h-219zM258 0h184v1120h-184v-1120z" />
<glyph unicode="&#xee;" horiz-adv-x="937" d="M150 1262h139l180 245l180 -245h139l-245 376h-148zM432 0h184v1120h-184v-1120z" />
<glyph unicode="&#xef;" horiz-adv-x="937" d="M150 1350h219v217h-219v-217zM375 0h184v1120h-184v-1120zM569 1350h217v217h-217v-217z" />
<glyph unicode="&#xf0;" d="M150 537q0 -255 141.5 -410.5t372.5 -155.5t372.5 155.5t141.5 410.5q0 174 -57 318t-183 286l-164 186l295 98l-33 97l-334 -111l-127 145h-227l180 -204l-280 -92l33 -99l319 107l160 -181q-78 11 -113 11q-221 0 -359 -155.5t-138 -405.5zM344 537q0 195 92.5 303 t259.5 108q83 0 178 -33q109 -139 109 -378q0 -53 -8 -93.5t-21 -68t-36.5 -47t-46.5 -30t-60 -16t-68 -7t-79 -1.5q-49 0 -80 1.5t-68.5 7t-60 16t-46.5 30t-36.5 47t-20.5 68t-8 93.5z" />
<glyph unicode="&#xf1;" horiz-adv-x="1308" d="M150 0h256l-31 643q0 168 83.5 261t248.5 93q121 0 174 -77t53 -240l-39 -680h262l-29 676q-21 471 -401 471q-104 0 -190 -42t-172 -110v135h-185zM305 1610h125q3 81 21 119q17 36 55 36q24 0 69 -39l56 -55q66 -61 139 -61q91 0 142.5 73.5t54.5 208.5h-127 q0 -78 -19 -118q-18 -37 -57 -37q-26 0 -68 39l-57 55q-66 61 -139 61q-91 0 -141.5 -73.5t-53.5 -208.5z" />
<glyph unicode="&#xf2;" d="M150 559q0 -275 136.5 -431.5t377.5 -156.5q240 0 377 156.5t137 431.5q0 276 -137 432t-377 156q-242 0 -378 -155.5t-136 -432.5zM334 2023l207 -374h272l-283 374h-196zM344 592q0 195 86 307.5t234 112.5q147 0 233 -113.5t86 -306.5q0 -95 -21 -156.5t-66 -93 t-98 -42.5t-134 -11q-65 0 -110.5 6.5t-87.5 25t-67 51.5t-40 88t-15 132z" />
<glyph unicode="&#xf3;" d="M150 559q0 -275 136.5 -431.5t377.5 -156.5q240 0 377 156.5t137 431.5q0 276 -137 432t-377 156q-242 0 -378 -155.5t-136 -432.5zM344 592q0 195 86 307.5t234 112.5q147 0 233 -113.5t86 -306.5q0 -95 -21 -156.5t-66 -93t-98 -42.5t-134 -11q-65 0 -110.5 6.5 t-87.5 25t-67 51.5t-40 88t-15 132zM582 1630h170l362 418h-219z" />
<glyph unicode="&#xf4;" d="M150 559q0 -275 136.5 -431.5t377.5 -156.5q240 0 377 156.5t137 431.5q0 276 -137 432t-377 156q-242 0 -378 -155.5t-136 -432.5zM344 592q0 195 86 307.5t234 112.5q147 0 233 -113.5t86 -306.5q0 -95 -21 -156.5t-66 -93t-98 -42.5t-134 -11q-65 0 -110.5 6.5 t-87.5 25t-67 51.5t-40 88t-15 132zM344 1227h139l181 246l180 -246h139l-246 377h-147z" />
<glyph unicode="&#xf5;" d="M150 559q0 -275 136.5 -431.5t377.5 -156.5q240 0 377 156.5t137 431.5q0 276 -137 432t-377 156q-242 0 -378 -155.5t-136 -432.5zM334 1610h125q3 84 20 119q17 36 56 36q24 0 69 -39l55 -55q66 -61 140 -61q91 0 142 73.5t54 208.5h-127q0 -80 -18 -118 q-18 -37 -57 -37q-26 0 -68 39l-57 55q-66 61 -140 61q-91 0 -141 -73.5t-53 -208.5zM344 592q0 195 86 307.5t234 112.5q147 0 233 -113.5t86 -306.5q0 -95 -21 -156.5t-66 -93t-98 -42.5t-134 -11q-65 0 -110.5 6.5t-87.5 25t-67 51.5t-40 88t-15 132z" />
<glyph unicode="&#xf6;" d="M150 559q0 -275 136.5 -431.5t377.5 -156.5q240 0 377 156.5t137 431.5q0 276 -137 432t-377 156q-242 0 -378 -155.5t-136 -432.5zM344 592q0 195 86 307.5t234 112.5q147 0 233 -113.5t86 -306.5q0 -95 -21 -156.5t-66 -93t-98 -42.5t-134 -11q-65 0 -110.5 6.5 t-87.5 25t-67 51.5t-40 88t-15 132zM344 1350h219v217h-219v-217zM764 1350h217v217h-217v-217z" />
<glyph unicode="&#xf7;" horiz-adv-x="1632" d="M150 508h1333v219h-1333v-219zM668 49h297v295h-297v-295zM668 889h297v297h-297v-297z" />
<glyph unicode="&#xf8;" horiz-adv-x="1409" d="M150 -16l96 -78l139 168q127 -103 320 -103q240 0 377 156.5t137 431.5q0 243 -107 395l145 179l-94 79l-139 -168q-133 103 -319 103q-240 0 -377.5 -156t-137.5 -432q0 -239 109 -393zM385 545q0 211 84.5 328.5t235.5 117.5q124 0 206 -82l-487 -592q-39 88 -39 228z M496 209l487 592q41 -86 41 -242q0 -200 -85.5 -316t-233.5 -116q-127 0 -209 82z" />
<glyph unicode="&#xf9;" horiz-adv-x="1247" d="M150 442q0 -231 100.5 -351t292.5 -120q229 0 360 201l-8 -172h182l21 1120h-203l-21 -475q-11 -167 -92.5 -260.5t-228.5 -93.5q-122 0 -180.5 77.5t-69.5 239.5v512h-153v-678zM301 2023l207 -374h272l-282 374h-197z" />
<glyph unicode="&#xfa;" horiz-adv-x="1247" d="M150 442q0 -231 100.5 -351t292.5 -120q229 0 360 201l-8 -172h182l21 1120h-203l-21 -475q-11 -167 -92.5 -260.5t-228.5 -93.5q-122 0 -180.5 77.5t-69.5 239.5v512h-153v-678zM549 1630h170l362 418h-219z" />
<glyph unicode="&#xfb;" horiz-adv-x="1247" d="M150 442q0 -231 100.5 -351t292.5 -120q229 0 360 201l-8 -172h182l21 1120h-203l-21 -475q-11 -167 -92.5 -260.5t-228.5 -93.5q-122 0 -180.5 77.5t-69.5 239.5v512h-153v-678zM311 1227h140l180 246l180 -246h139l-245 377h-148z" />
<glyph unicode="&#xfc;" horiz-adv-x="1247" d="M150 442q0 -231 100.5 -351t292.5 -120q229 0 360 201l-8 -172h182l21 1120h-203l-21 -475q-11 -167 -92.5 -260.5t-228.5 -93.5q-122 0 -180.5 77.5t-69.5 239.5v512h-153v-678zM311 1350h219v217h-219v-217zM731 1350h217v217h-217v-217z" />
<glyph unicode="&#xfd;" horiz-adv-x="1390" d="M150 1120l479 -1028l-78 -158q-34 -41 -50 -59t-43 -40t-54.5 -30t-63.5 -8h-129v-243h168q66 0 112.5 12.5t94 48.5t90.5 104t92 177l471 1224h-195l-303 -651l-397 651h-194zM524 1630h170l363 418h-219z" />
<glyph unicode="&#xfe;" horiz-adv-x="1277" d="M274 -426h187v594q113 -197 356 -197q205 0 333 162.5t128 425.5t-128 425.5t-333 162.5q-243 0 -356 -197v606h-187v-1982zM461 559q0 203 82.5 318.5t228.5 115.5q147 0 230 -115.5t83 -318.5t-83 -318.5t-230 -115.5q-146 0 -228.5 115.5t-82.5 318.5z" />
<glyph unicode="&#xff;" horiz-adv-x="1390" d="M150 1120l479 -1028l-78 -158q-34 -41 -50 -59t-43 -40t-54.5 -30t-63.5 -8h-129v-243h168q66 0 112.5 12.5t94 48.5t90.5 104t92 177l471 1224h-195l-303 -651l-397 651h-194zM287 1350h219v217h-219v-217zM707 1350h217v217h-217v-217z" />
<glyph unicode="&#x152;" horiz-adv-x="2334" d="M195 748q0 -369 223 -558.5t655 -189.5h1065v281h-760v499h731v170h-731v414h744v129h-1049q-431 0 -654.5 -190t-223.5 -555zM408 748q0 323 157.5 469.5t483.5 146.5h129v-1083h-129q-155 0 -280 39t-202 105.5t-118 149t-41 173.5z" />
<glyph unicode="&#x153;" horiz-adv-x="2306" d="M219 559q0 -275 137 -431.5t377 -156.5q280 0 420 219q165 -219 483 -219q216 0 414 86v234q-194 -105 -403 -105q-46 0 -77.5 1.5t-69 7t-62.5 15.5t-52.5 27t-45.5 42t-36 61t-28.5 82.5t-18 107.5t-10.5 136h846v90q0 41 -21.5 92t-64.5 103.5t-100 96t-137 71.5 t-166 28q-143 0 -259 -56t-194 -163q-135 219 -418 219q-240 0 -377 -156t-137 -432zM414 623q0 186 85.5 292.5t233.5 106.5t234 -108t86 -291t-86 -290.5t-234 -107.5q-149 0 -234 106.5t-85 291.5zM1253 799q8 36 36 76.5t71.5 78t108.5 62t137 24.5q65 0 124 -25.5 t96.5 -63.5t59.5 -78t23 -72z" />
<glyph unicode="&#x178;" horiz-adv-x="1558" d="M150 1493l489 -981v-512h272v512l498 981h-217l-412 -764l-413 764h-217zM459 1722h219v217h-219v-217zM879 1722h217v217h-217v-217z" />
<glyph unicode="&#x2c6;" horiz-adv-x="937" d="M150 1262h139l180 245l180 -245h139l-245 376h-148z" />
<glyph unicode="&#x2dc;" horiz-adv-x="960" d="M150 1309h124q3 80 21 118q18 37 55 37q25 0 70 -39l55 -55q66 -61 139 -61q91 0 142.5 73.5t54.5 208.5h-127q0 -81 -18 -118t-58 -37q-25 0 -67 39l-58 55q-66 61 -139 61q-91 0 -141 -73.5t-53 -208.5z" />
<glyph unicode="&#x2000;" horiz-adv-x="1210" />
<glyph unicode="&#x2001;" horiz-adv-x="2421" />
<glyph unicode="&#x2002;" horiz-adv-x="1210" />
<glyph unicode="&#x2003;" horiz-adv-x="2421" />
<glyph unicode="&#x2004;" horiz-adv-x="807" />
<glyph unicode="&#x2005;" horiz-adv-x="605" />
<glyph unicode="&#x2006;" horiz-adv-x="403" />
<glyph unicode="&#x2007;" horiz-adv-x="403" />
<glyph unicode="&#x2008;" horiz-adv-x="302" />
<glyph unicode="&#x2009;" horiz-adv-x="484" />
<glyph unicode="&#x200a;" horiz-adv-x="134" />
<glyph unicode="&#x2010;" horiz-adv-x="845" d="M150 479l538 8l8 166l-538 -10z" />
<glyph unicode="&#x2011;" horiz-adv-x="845" d="M150 479l538 8l8 166l-538 -10z" />
<glyph unicode="&#x2012;" horiz-adv-x="845" d="M150 479l538 8l8 166l-538 -10z" />
<glyph unicode="&#x2013;" horiz-adv-x="1323" d="M150 489h1024v144h-1024v-144z" />
<glyph unicode="&#x2014;" horiz-adv-x="2347" d="M150 489h2048v144h-2048v-144z" />
<glyph unicode="&#x2018;" horiz-adv-x="618" d="M150 913h260v213l100 394h-160l-200 -394v-213z" />
<glyph unicode="&#x2019;" horiz-adv-x="589" d="M150 938h155l201 387v184h-256v-184z" />
<glyph unicode="&#x201a;" horiz-adv-x="593" d="M150 -238h129l163 320v172h-211v-172z" />
<glyph unicode="&#x201c;" horiz-adv-x="1173" d="M150 881h262v215l102 397h-160l-204 -397v-215zM659 881h263v215l102 397h-160l-205 -397v-215z" />
<glyph unicode="&#x201d;" horiz-adv-x="1116" d="M150 922h149l193 370v201h-246v-201zM627 922h149l191 370v201h-244v-201z" />
<glyph unicode="&#x201e;" horiz-adv-x="1183" d="M150 -238h161l207 402v217h-264v-217zM666 -238h161l205 402v217h-264v-217z" />
<glyph unicode="&#x2022;" horiz-adv-x="894" d="M150 762q0 -125 86 -211t210 -86q126 0 211.5 86t85.5 211t-85 210t-209 85q-126 0 -212.5 -85.5t-86.5 -209.5z" />
<glyph unicode="&#x2026;" horiz-adv-x="1986" d="M150 0h323v365h-323v-365zM831 0h322v365h-322v-365zM1513 0h322v365h-322v-365z" />
<glyph unicode="&#x202f;" horiz-adv-x="484" />
<glyph unicode="&#x2039;" horiz-adv-x="768" d="M150 559l468 -418v191l-301 268l301 268v191l-468 -418v-82z" />
<glyph unicode="&#x203a;" horiz-adv-x="768" d="M150 141l468 418v82l-468 418v-191l301 -268l-301 -268v-191z" />
<glyph unicode="&#x205f;" horiz-adv-x="605" />
<glyph unicode="&#x20ac;" horiz-adv-x="1466" d="M150 479h221q31 -223 187 -365.5t388 -142.5q192 0 371 144v301q-103 -106 -187 -150.5t-186 -44.5q-74 0 -143 29.5t-115.5 71.5t-76.5 84t-36 73h365l55 164h-444q-4 33 -4 102q0 72 4 105h536l56 123h-578q33 195 136 315.5t255 120.5q104 0 188.5 -45t174.5 -150v164 q-177 142 -371 142q-235 0 -390.5 -145t-195.5 -402h-155l-55 -123h194v-45q-2 -16 -2 -60q0 -41 2 -55v-47h-139z" />
<glyph unicode="&#x2122;" horiz-adv-x="1640" d="M150 1399h200l-28 -484h174l-31 484h203v94h-518v-94zM752 915h174l-31 484l182 -432h97l174 432l-29 -484h172l-21 578h-170l-174 -326l-163 326h-172z" />
<glyph unicode="&#x25fc;" horiz-adv-x="1116" d="M0 0v1116h1116v-1116h-1116z" />
</font>
</defs>
</svg>
